<svg width="192" height="192" viewBox="0 0 192 192" fill="none" xmlns="http://www.w3.org/2000/svg">
<g clip-path="url(#clip0_4128_694)">
<g filter="url(#filter0_d_4128_694)">
<mask id="path-1-inside-1_4128_694" fill="white">
<path fill-rule="evenodd" clip-rule="evenodd" d="M168.461 11.8188C171.962 15.295 173.953 20.0112 174 24.945V186L133.125 148.5L138 165H36.615C26.355 165 18 157.238 18 147V24.57C18.0129 19.6411 19.9797 14.9184 23.4692 11.4374C26.9587 7.95633 31.6861 6.00098 36.615 6L155.295 6.375C160.229 6.38661 164.96 8.34256 168.461 11.8188Z"/>
</mask>
<path fill-rule="evenodd" clip-rule="evenodd" d="M168.461 11.8188C171.962 15.295 173.953 20.0112 174 24.945V186L133.125 148.5L138 165H36.615C26.355 165 18 157.238 18 147V24.57C18.0129 19.6411 19.9797 14.9184 23.4692 11.4374C26.9587 7.95633 31.6861 6.00098 36.615 6L155.295 6.375C160.229 6.38661 164.96 8.34256 168.461 11.8188Z" fill="url(#paint0_linear_4128_694)"/>
<path fill-rule="evenodd" clip-rule="evenodd" d="M168.461 11.8188C171.962 15.295 173.953 20.0112 174 24.945V186L133.125 148.5L138 165H36.615C26.355 165 18 157.238 18 147V24.57C18.0129 19.6411 19.9797 14.9184 23.4692 11.4374C26.9587 7.95633 31.6861 6.00098 36.615 6L155.295 6.375C160.229 6.38661 164.96 8.34256 168.461 11.8188Z" fill="black" fill-opacity="0.2"/>
<path d="M174 24.945H176.4V24.9335L176.4 24.922L174 24.945ZM174 186L172.378 187.768L176.4 191.459V186H174ZM133.125 148.5L134.747 146.732L128.372 140.882L130.823 149.18L133.125 148.5ZM138 165V167.4H141.212L140.302 164.32L138 165ZM18 24.57L15.6 24.5637V24.57H18ZM23.4692 11.4374L25.1642 13.1365L23.4692 11.4374ZM36.615 6L36.6226 3.6L36.6145 3.6L36.615 6ZM155.295 6.375L155.287 8.77499L155.289 8.77499L155.295 6.375ZM176.4 24.922C176.346 19.3567 174.102 14.0367 170.152 10.1156L166.77 13.522C169.823 16.5532 171.559 20.6658 171.6 24.968L176.4 24.922ZM176.4 186V24.945H171.6V186H176.4ZM131.503 150.268L172.378 187.768L175.622 184.232L134.747 146.732L131.503 150.268ZM140.302 164.32L135.427 147.82L130.823 149.18L135.698 165.68L140.302 164.32ZM36.615 167.4H138V162.6H36.615V167.4ZM15.6 147C15.6 158.665 25.1343 167.4 36.615 167.4V162.6C27.5757 162.6 20.4 155.81 20.4 147H15.6ZM15.6 24.57V147H20.4V24.57H15.6ZM21.7742 9.73827C17.8349 13.668 15.6146 18.9995 15.6 24.5637L20.4 24.5763C20.4112 20.2827 22.1245 16.1688 25.1642 13.1365L21.7742 9.73827ZM36.6145 3.6C31.0503 3.6011 25.7135 5.80851 21.7742 9.73827L25.1642 13.1365C28.2039 10.1042 32.3219 8.40085 36.6155 8.4L36.6145 3.6ZM155.303 3.97501L36.6226 3.60001L36.6074 8.39999L155.287 8.77499L155.303 3.97501ZM170.152 10.1156C166.202 6.19442 160.866 3.98811 155.301 3.97501L155.289 8.77499C159.592 8.78512 163.717 10.4907 166.77 13.522L170.152 10.1156Z" fill="white" mask="url(#path-1-inside-1_4128_694)"/>
</g>
<g filter="url(#filter1_d_4128_694)">
<path d="M133.278 56.8419C121.123 47.7461 109.478 48.0018 109.478 48.0018L108.287 49.3616C122.738 53.6969 129.453 60.0719 129.453 60.0719C108.778 48.6891 82.4447 48.7708 60.9404 60.0719C60.9404 60.0719 67.9105 53.3564 83.2116 49.0211L82.3619 48.0007C82.3619 48.0007 70.801 47.7461 58.5612 56.8409C58.5612 56.8409 46.3203 78.8564 46.3203 105.973C46.3203 105.973 53.4612 118.214 72.2468 118.809C72.2468 118.809 75.3919 115.069 77.9419 111.839C67.1468 108.609 63.0661 101.893 63.0661 101.893C69.8485 106.137 76.7061 108.794 85.2524 110.479C99.1566 113.341 116.452 110.398 129.369 101.893C129.369 101.893 125.119 108.779 113.983 111.924C116.534 115.069 119.594 118.724 119.594 118.724C138.379 118.129 145.519 105.888 145.519 105.974C145.518 78.8575 133.278 56.8419 133.278 56.8419ZM80.0665 98.0684C75.3059 98.0684 71.3961 93.9029 71.3961 88.7181C71.744 76.3 88.476 76.3382 88.737 88.7181C88.737 93.9029 84.9109 98.0684 80.0665 98.0684ZM111.092 98.0684C106.331 98.0684 102.421 93.9029 102.421 88.7181C102.803 76.3244 119.326 76.3191 119.762 88.7181C119.762 93.9029 115.937 98.0684 111.092 98.0684Z" fill="white"/>
</g>
</g>
<defs>
<filter id="filter0_d_4128_694" x="10.5" y="-1.5" width="171" height="195" filterUnits="userSpaceOnUse" color-interpolation-filters="sRGB">
<feFlood flood-opacity="0" result="BackgroundImageFix"/>
<feColorMatrix in="SourceAlpha" type="matrix" values="0 0 0 0 0 0 0 0 0 0 0 0 0 0 0 0 0 0 127 0" result="hardAlpha"/>
<feOffset/>
<feGaussianBlur stdDeviation="3.75"/>
<feComposite in2="hardAlpha" operator="out"/>
<feColorMatrix type="matrix" values="0 0 0 0 0 0 0 0 0 0 0 0 0 0 0 0 0 0 0.5 0"/>
<feBlend mode="normal" in2="BackgroundImageFix" result="effect1_dropShadow_4128_694"/>
<feBlend mode="normal" in="SourceGraphic" in2="effect1_dropShadow_4128_694" result="shape"/>
</filter>
<filter id="filter1_d_4128_694" x="41.5203" y="43.2" width="108.799" height="80.4091" filterUnits="userSpaceOnUse" color-interpolation-filters="sRGB">
<feFlood flood-opacity="0" result="BackgroundImageFix"/>
<feColorMatrix in="SourceAlpha" type="matrix" values="0 0 0 0 0 0 0 0 0 0 0 0 0 0 0 0 0 0 127 0" result="hardAlpha"/>
<feOffset/>
<feGaussianBlur stdDeviation="2.4"/>
<feComposite in2="hardAlpha" operator="out"/>
<feColorMatrix type="matrix" values="0 0 0 0 1 0 0 0 0 1 0 0 0 0 1 0 0 0 0.375 0"/>
<feBlend mode="normal" in2="BackgroundImageFix" result="effect1_dropShadow_4128_694"/>
<feBlend mode="normal" in="SourceGraphic" in2="effect1_dropShadow_4128_694" result="shape"/>
</filter>
<linearGradient id="paint0_linear_4128_694" x1="36.2624" y1="6" x2="155.738" y2="186" gradientUnits="userSpaceOnUse">
<stop stop-color="#7289DA"/>
<stop offset="1" stop-color="#3D4974"/>
</linearGradient>
<clipPath id="clip0_4128_694">
<rect width="192" height="192" fill="white"/>
</clipPath>
</defs>
</svg>
